<svg xmlns="http://www.w3.org/2000/svg" viewBox="0 0 410 404" fill="none">
  <path d="M399.641 59.525 216.988 381.12a13.093 13.093 0 0 1-22.64.005L10.24 59.54c-5.955-10.53 2.973-23.166 15.294-21.684l180.214 21.7a13.094 13.094 0 0 0 3.122 0L384.34 37.84c12.322-1.48 21.25 11.156 15.301 21.685Z" fill="url(#a)"/>
  <path d="M292.966 1.574 159.8 27.687a6.538 6.538 0 0 0-5.311 6.437c0 3.971 3.526 7.02 7.48 6.456l37.033-5.3a6.538 6.538 0 0 1 7.295 7.344l-11.2 94.585a6.538 6.538 0 0 0 8.837 7.064l23.02-9.152a6.538 6.538 0 0 1 8.96 7.328l-17.523 133.1a6.538 6.538 0 0 0 12.497 4.004l6.774-17.67a6.538 6.538 0 0 1 9.74-3.19l64.284 47.233c4.252 3.121 10.254.744 11.302-4.405l52.754-263.356c.84-4.188-2.792-7.885-6.97-7.094l-45.82 8.58a6.538 6.538 0 0 1-7.578-7.53l10.347-72.236c.61-4.253-3.115-7.916-7.337-7.078Z" fill="url(#b)"/>
  <defs>
    <linearGradient id="a" x1="6" y1="33" x2="235" y2="344" gradientUnits="userSpaceOnUse">
      <stop stop-color="#41D1FF"/>
      <stop offset="1" stop-color="#BD34FE"/>
    </linearGradient>
    <linearGradient id="b" x1="194" y1="8" x2="236" y2="292" gradientUnits="userSpaceOnUse">
      <stop stop-color="#FFEA83"/>
      <stop offset=".083" stop-color="#FFDD35"/>
      <stop offset="1" stop-color="#FFA800"/>
    </linearGradient>
  </defs>
</svg>
